<svg role="img" viewBox="0 0 24 24" xmlns="http://www.w3.org/2000/svg">
  <title>Gobuster</title>
  <path fill="#000" d="M12 3c-3.5 0-6.5 2.2-7.7 5.3l1.8.7c.9-2.3 3.1-3.9 5.9-3.9s5 1.6 5.9 3.9l1.8-.7C18.5 5.2 15.5 3 12 3Z"/>
  <circle cx="9" cy="11" r="1.2" fill="#000"/>
  <circle cx="15" cy="11" r="1.2" fill="#000"/>
  <path fill="#000" d="M8.5 14.5c1 .8 2.2 1.2 3.5 1.2s2.5-.4 3.5-1.2l1.2 1.8c-1.3 1-3 1.6-4.7 1.6s-3.4-.6-4.7-1.6l1.2-1.8Z"/>
  <rect x="10.5" y="18" width="3" height="3" rx=".6" fill="#000"/>
</svg>
