<svg role="img" viewBox="0 0 24 24" xmlns="http://www.w3.org/2000/svg">
  <title>O.MG Cable</title>
  <path fill="#000" d="M4 10.5c0-1.2.8-2.2 2-2.5V7.5h12v.5c1.2.3 2 1.3 2 2.5v3c0 1.4-1.1 2.5-2.5 2.5h-11C5.1 16 4 14.9 4 13.5v-3Z"/>
  <rect x="7" y="8" width="10" height="1.8" rx=".4" fill="#fff"/>
  <path fill="#000" d="M6.5 17.5h11v2.2c0 .8-.7 1.5-1.5 1.5H8c-.8 0-1.5-.7-1.5-1.5v-2.2Z"/>
  <path fill="#000" d="M11.2 4.5 12 3l.8 1.5 1.7.2-1.2 1.1.3 1.7-1.6-.9-1.6.9.3-1.7-1.2-1.1 1.7-.2Z"/>
</svg>
