<svg role="img" viewBox="0 0 24 24" xmlns="http://www.w3.org/2000/svg">
  <title>WiFi Pineapple</title>
  <path fill="#000" d="M12 3c-4.2 0-7.6 2.8-8.8 6.6l1.9.6C6.1 7.2 8.8 5.5 12 5.5s5.9 1.7 6.9 4.7l1.9-.6C19.6 5.8 16.2 3 12 3Zm0 4.5c-2.8 0-5.1 1.8-6 4.3l1.9.6c.7-1.6 2.4-2.7 4.1-2.7s3.4 1.1 4.1 2.7l1.9-.6c-.9-2.5-3.2-4.3-6-4.3ZM12 13c-1.2 0-2.2.7-2.7 1.7l1.9.6c.2-.4.7-.8 1.3-.8s1.1.4 1.3.8l1.9-.6c-.5-1-1.5-1.7-2.7-1.7Z"/>
  <ellipse cx="12" cy="18.5" rx="3.2" ry="4.2" fill="#000"/>
  <path fill="#000" d="M10.2 16.8h3.6l-.4 1.2h-2.8l.4-1.2Z"/>
</svg>
